<svg width="524" height="141" viewBox="0 0 524 141" fill="none" xmlns="http://www.w3.org/2000/svg">
<g opacity="0.75" clip-path="url(#clip0_1505_12582)">
<path d="M120.182 84.0039C120.182 86.4293 120.788 88.3909 122.001 89.8889C123.214 91.3156 124.89 92.4569 127.03 93.313C129.17 94.0976 131.524 94.7753 134.092 95.3459C136.731 95.8453 139.442 96.3803 142.224 96.951C145.006 97.4503 147.681 98.1636 150.249 99.091C152.888 99.947 155.242 101.16 157.311 102.729C159.451 104.227 161.127 106.189 162.34 108.614C163.624 111.039 164.266 114.107 164.266 117.816C164.266 122.595 163.053 126.661 160.628 130.014C158.274 133.367 155.028 135.899 150.891 137.611C146.754 139.323 142.01 140.179 136.66 140.179C131.31 140.179 126.531 139.359 122.322 137.718C118.185 136.077 114.725 133.581 111.943 130.228C109.232 126.875 107.378 122.667 106.379 117.602H118.898C119.968 121.739 122.001 124.914 124.997 127.125C127.993 129.265 131.916 130.335 136.767 130.335C141.76 130.335 145.541 129.336 148.109 127.339C150.677 125.342 151.961 122.702 151.961 119.421C151.961 116.853 151.355 114.784 150.142 113.215C148.929 111.574 147.253 110.326 145.113 109.47C142.973 108.543 140.583 107.794 137.944 107.223C135.376 106.581 132.701 105.975 129.919 105.404C127.137 104.833 124.426 104.12 121.787 103.264C119.219 102.408 116.865 101.267 114.725 99.84C112.656 98.3419 110.98 96.4159 109.696 94.062C108.483 91.7079 107.877 88.6763 107.877 84.9669C107.877 81.3289 108.876 77.9763 110.873 74.909C112.87 71.7703 115.759 69.2736 119.54 67.4189C123.392 65.5643 128.1 64.6369 133.664 64.6369C138.443 64.6369 142.83 65.4573 146.825 67.0979C150.891 68.6673 154.279 71.1283 156.99 74.4809C159.701 77.7623 161.484 82.0779 162.34 87.4279H149.607C148.608 82.9339 146.718 79.6526 143.936 77.5839C141.154 75.5153 137.623 74.4809 133.343 74.4809C129.206 74.4809 125.96 75.3726 123.606 77.1559C121.323 78.8679 120.182 81.1506 120.182 84.0039Z" fill="black"/>
<path d="M180.137 138.788V66.0279H191.693L192.121 138.788H180.137ZM245.835 138.788L246.263 66.0279H257.819V138.788H245.835ZM223.258 138.788H214.698L196.936 95.3459L186.985 66.0279H196.294L216.838 116.425L220.048 126.697H218.443L221.76 116.425L242.09 66.0279H250.864L240.913 95.4529L223.258 138.788Z" fill="black"/>
<path d="M296.989 138.788V112.359H308.973V138.788H296.989ZM284.684 66.0279L300.199 94.5969L304.051 103.371H302.874L306.512 94.5969L322.027 66.0279H334.76L308.973 112.359H296.989L271.202 66.0279H284.684Z" fill="black"/>
<path d="M356.949 84.0039C356.949 86.4293 357.555 88.3909 358.768 89.8889C359.981 91.3156 361.657 92.4569 363.797 93.313C365.937 94.0976 368.291 94.7753 370.859 95.3459C373.498 95.8453 376.209 96.3803 378.991 96.951C381.773 97.4503 384.448 98.1636 387.016 99.091C389.655 99.947 392.009 101.16 394.078 102.729C396.218 104.227 397.894 106.189 399.107 108.614C400.391 111.039 401.033 114.107 401.033 117.816C401.033 122.595 399.82 126.661 397.395 130.014C395.041 133.367 391.795 135.899 387.658 137.611C383.521 139.323 378.777 140.179 373.427 140.179C368.077 140.179 363.298 139.359 359.089 137.718C354.952 136.077 351.492 133.581 348.71 130.228C345.999 126.875 344.145 122.667 343.146 117.602H355.665C356.735 121.739 358.768 124.914 361.764 127.125C364.76 129.265 368.683 130.335 373.534 130.335C378.527 130.335 382.308 129.336 384.876 127.339C387.444 125.342 388.728 122.702 388.728 119.421C388.728 116.853 388.122 114.784 386.909 113.215C385.696 111.574 384.02 110.326 381.88 109.47C379.74 108.543 377.35 107.794 374.711 107.223C372.143 106.581 369.468 105.975 366.686 105.404C363.904 104.833 361.193 104.12 358.554 103.264C355.986 102.408 353.632 101.267 351.492 99.84C349.423 98.3419 347.747 96.4159 346.463 94.062C345.25 91.7079 344.644 88.6763 344.644 84.9669C344.644 81.3289 345.643 77.9763 347.64 74.909C349.637 71.7703 352.526 69.2736 356.307 67.4189C360.159 65.5643 364.867 64.6369 370.431 64.6369C375.21 64.6369 379.597 65.4573 383.592 67.0979C387.658 68.6673 391.046 71.1283 393.757 74.4809C396.468 77.7623 398.251 82.0779 399.107 87.4279H386.374C385.375 82.9339 383.485 79.6526 380.703 77.5839C377.921 75.5153 374.39 74.4809 370.11 74.4809C365.973 74.4809 362.727 75.3726 360.373 77.1559C358.09 78.8679 356.949 81.1506 356.949 84.0039Z" fill="black"/>
<path d="M416.904 138.788V66.0279H428.888V138.788H416.904ZM425.571 138.788V129.051H464.091V138.788H425.571Z" fill="black"/>
<path d="M485.794 138.788V112.359H497.778V138.788H485.794ZM473.489 66.0279L489.004 94.5969L492.856 103.371H491.679L495.317 94.5969L510.832 66.0279H523.565L497.778 112.359H485.794L460.007 66.0279H473.489Z" fill="black"/>
<path d="M65.3555 125.308C61.6221 125.308 58.0221 124.774 54.5555 123.708C51.0888 122.641 47.8221 121.308 44.7555 119.708C41.8221 118.241 38.6888 116.441 35.3555 114.308C32.1555 112.308 29.2888 110.508 26.7555 108.908C25.0221 109.308 23.1555 109.774 21.1555 110.308C19.2888 110.974 17.0888 111.308 14.5555 111.308C12.6888 111.308 10.6221 111.174 8.35547 110.908C6.0888 110.641 4.15547 110.041 2.55547 109.108C1.0888 108.308 0.355469 106.908 0.355469 104.908C0.355469 103.308 1.02214 102.174 2.35547 101.508C3.6888 100.841 5.22214 100.441 6.95547 100.308C8.82214 100.041 10.2888 99.9078 11.3555 99.9078C14.4221 99.9078 17.6221 100.374 20.9555 101.308C24.4221 102.241 28.0221 103.374 31.7555 104.708C36.0221 103.641 40.0888 102.041 43.9555 99.9078C45.9555 98.8412 48.6888 97.2411 52.1555 95.1078C55.6221 92.8412 59.3555 90.1745 63.3555 87.1078C67.4888 83.9078 71.4888 80.4412 75.3555 76.7078C79.2221 72.8412 82.5555 68.7745 85.3555 64.5078C89.6221 58.1078 92.9555 51.4412 95.3555 44.5078C97.8888 37.5745 99.1555 31.2412 99.1555 25.5078C99.1555 19.5078 97.5555 14.5745 94.3555 10.7078C91.1555 6.84115 85.6888 4.90782 77.9555 4.90782C71.9555 4.90782 66.2888 6.37448 60.9555 9.30782C55.7555 12.2412 51.2888 16.2412 47.5555 21.3078C43.8221 26.3745 41.0888 32.1078 39.3555 38.5078C38.8221 40.5078 38.5555 42.4412 38.5555 44.3078C38.5555 48.5745 39.7555 51.9078 42.1555 54.3078C44.6888 56.5745 47.5555 57.7078 50.7555 57.7078C53.6888 57.7078 56.5555 56.7745 59.3555 54.9078C62.2888 53.0412 64.6888 50.1078 66.5555 46.1078C66.9555 44.7745 67.5555 44.1078 68.3555 44.1078C68.7555 44.1078 68.9555 44.4412 68.9555 45.1078C68.9555 45.2412 68.9555 45.5078 68.9555 45.9078C68.9555 46.1745 68.8221 46.5078 68.5555 46.9078C67.2221 51.0412 64.3555 54.6412 59.9555 57.7078C55.5555 60.6412 51.0221 62.1078 46.3555 62.1078C44.2221 62.1078 42.1555 61.7745 40.1555 61.1078C38.2888 60.4412 36.5555 59.3745 34.9555 57.9078C33.3555 56.4412 32.1555 54.6412 31.3555 52.5078C30.6888 50.3745 30.3555 48.0412 30.3555 45.5078C30.3555 41.7745 31.0888 37.9078 32.5555 33.9078C34.0221 29.9078 35.8888 26.2412 38.1555 22.9078C41.4888 18.2412 45.4888 14.2412 50.1555 10.9078C54.9555 7.57448 60.0221 5.04115 65.3555 3.30782C70.8221 1.44115 76.0888 0.507812 81.1555 0.507812C89.8221 0.507812 96.9555 3.10781 102.555 8.30782C108.155 13.5078 110.955 20.5078 110.955 29.3078C110.955 29.9745 110.955 30.7078 110.955 31.5078C110.955 32.1745 110.889 32.8412 110.755 33.5078C110.089 39.7745 107.822 46.0412 103.955 52.3078C100.089 58.4412 95.2888 64.3745 89.5555 70.1078C83.8221 75.7078 77.6888 80.9078 71.1555 85.7078C64.6221 90.5078 58.2221 94.6412 51.9555 98.1078C45.8221 101.574 40.4888 104.174 35.9555 105.908C38.2221 106.974 41.2221 108.308 44.9555 109.908C48.6888 111.508 52.8221 112.908 57.3555 114.108C62.0221 115.441 66.7555 116.108 71.5555 116.108C74.3555 116.108 77.0888 115.774 79.7555 115.108C82.5555 114.441 85.2221 113.441 87.7555 112.108C89.4888 111.041 90.6221 109.708 91.1555 108.108C91.6888 106.508 91.8221 105.308 91.5555 104.508C91.2888 103.708 91.1555 103.174 91.1555 102.908C91.1555 102.108 91.4221 101.708 91.9555 101.708C92.7555 101.708 93.4888 102.574 94.1555 104.308C94.4221 105.108 94.5555 105.841 94.5555 106.508C94.5555 108.774 93.8221 110.974 92.3555 113.108C89.8221 116.708 86.0888 119.641 81.1555 121.908C76.3555 124.174 71.0888 125.308 65.3555 125.308ZM13.9555 107.308C15.5555 107.308 17.1555 107.241 18.7555 107.108C20.4888 106.974 21.8888 106.774 22.9555 106.508C21.3555 105.574 19.5555 104.708 17.5555 103.908C15.6888 102.974 13.4888 102.508 10.9555 102.508C8.02214 102.508 6.55547 103.174 6.55547 104.508C6.55547 105.041 6.8888 105.574 7.55547 106.108C8.35547 106.641 9.22214 106.974 10.1555 107.108C10.6888 107.241 11.2888 107.308 11.9555 107.308C12.6221 107.308 13.2888 107.308 13.9555 107.308Z" fill="black"/>
</g>
<defs>
<clipPath id="clip0_1505_12582">
<rect width="523.209" height="139.671" fill="white" transform="translate(0.355469 0.507812)"/>
</clipPath>
</defs>
</svg>
